<svg xmlns="http://www.w3.org/2000/svg" width="1200" height="800" viewBox="0 0 1200 800">
<defs><linearGradient id="fade" x1="0" y1="0" x2="0" y2="1">
<stop offset="0" stop-color="rgba(255,255,255,0.18)"/><stop offset="1" stop-color="rgba(255,255,255,0)"/></linearGradient></defs>
<rect width="1200" height="800" fill="transparent"/>
<g stroke="rgba(255,255,255,0.12)" stroke-width="1"><path d="M0 0H1200"/>
<path d="M0 40H1200"/>
<path d="M0 80H1200"/>
<path d="M0 120H1200"/>
<path d="M0 160H1200"/>
<path d="M0 200H1200"/>
<path d="M0 240H1200"/>
<path d="M0 280H1200"/>
<path d="M0 320H1200"/>
<path d="M0 360H1200"/>
<path d="M0 400H1200"/>
<path d="M0 440H1200"/>
<path d="M0 480H1200"/>
<path d="M0 520H1200"/>
<path d="M0 560H1200"/>
<path d="M0 600H1200"/>
<path d="M0 640H1200"/>
<path d="M0 680H1200"/>
<path d="M0 720H1200"/>
<path d="M0 760H1200"/>
<path d="M0 800H1200"/>
<path d="M0 0V800"/>
<path d="M40 0V800"/>
<path d="M80 0V800"/>
<path d="M120 0V800"/>
<path d="M160 0V800"/>
<path d="M200 0V800"/>
<path d="M240 0V800"/>
<path d="M280 0V800"/>
<path d="M320 0V800"/>
<path d="M360 0V800"/>
<path d="M400 0V800"/>
<path d="M440 0V800"/>
<path d="M480 0V800"/>
<path d="M520 0V800"/>
<path d="M560 0V800"/>
<path d="M600 0V800"/>
<path d="M640 0V800"/>
<path d="M680 0V800"/>
<path d="M720 0V800"/>
<path d="M760 0V800"/>
<path d="M800 0V800"/>
<path d="M840 0V800"/>
<path d="M880 0V800"/>
<path d="M920 0V800"/>
<path d="M960 0V800"/>
<path d="M1000 0V800"/>
<path d="M1040 0V800"/>
<path d="M1080 0V800"/>
<path d="M1120 0V800"/>
<path d="M1160 0V800"/>
<path d="M1200 0V800"/></g>
<rect width="1200" height="800" fill="url(#fade)"/></svg>